<?xml version="1.0" encoding="UTF-8"?> <!-- Generator: Adobe Illustrator 18.1.1, SVG Export Plug-In . SVG Version: 6.00 Build 0) --> <svg xmlns="http://www.w3.org/2000/svg" xmlns:xlink="http://www.w3.org/1999/xlink" id="Слой_1" x="0px" y="0px" viewBox="0 0 600 154" xml:space="preserve"> <g> <polygon fill="#FFFFFF" points="19.3,55.8 580.7,55.8 580.7,145.7 19.3,145.7 19.3,55.8 "></polygon> <polygon fill="none" stroke="#FFFFFF" stroke-width="0.5056" stroke-miterlimit="10" points="19.3,55.8 580.7,55.8 580.7,145.7 19.3,145.7 19.3,55.8 "></polygon> <path fill="#1B4379" d="M26.1,63.1h27.1c12,0,18.3,4.4,18.3,16.6c0,11.7-6.3,16.6-18,16.6H26.1V63.1L26.1,63.1z M40.1,88h8 c6.4,0,8.9-3,8.9-8.3c0-5.3-2.6-8.3-8.9-8.3h-8V88L40.1,88z"></path> <polygon fill="#1B4379" points="75.7,63.1 113.2,63.1 113.2,71.2 89.6,71.2 89.6,75.7 111.5,75.7 111.5,83.8 89.6,83.8 89.6,88.3 113.2,88.3 113.2,96.4 75.7,96.4 75.7,63.1 "></polygon> <path fill="#1B4379" d="M117.8,63.1h13.9v20.1c0,4.3,2.6,5.6,7.2,5.6c4.5,0,7.2-1.3,7.2-5.6V63.1H160v20.6 c0,10.6-6.8,13.8-21.1,13.8c-14.3,0-21.1-3.2-21.1-13.8V63.1L117.8,63.1z"></path> <polygon fill="#1B4379" points="175.4,71.5 162.5,71.5 162.5,63.1 202.2,63.1 202.2,71.5 189.3,71.5 189.3,96.4 175.4,96.4 175.4,71.5 "></polygon> <polygon fill="#1B4379" points="203.1,89.4 224.3,71.5 204.5,71.5 204.5,63.1 243,63.1 243,70.4 222.4,88 242.5,88 242.5,96.4 203.1,96.4 203.1,89.4 "></polygon> <polygon fill="#1B4379" points="377.4,63.1 413.1,63.1 413.1,71.2 391.3,71.2 391.3,76.2 411.4,76.2 411.4,84.4 391.3,84.4 391.3,96.3 377.4,96.3 377.4,63.1 "></polygon> <path fill="#1B4379" d="M426.5,63.2h17.1l15,33.3h-14.8l-1.5-3.8h-14.5l-1.5,3.8h-14.8L426.5,63.2L426.5,63.2z M435.1,73.3 L435.1,73.3l-4.3,11.3h8.4L435.1,73.3L435.1,73.3z"></path> <polygon fill="#1B4379" points="492,83.2 476.4,83.2 476.4,96.5 462.4,96.5 462.4,63.2 476.4,63.2 476.4,74.8 492,74.8 492,63.2 506,63.2 506,96.5 492,96.5 492,83.2 "></polygon> <path fill="#1B4379" d="M553.2,96.5h-15.2l-8.4-11.8h-5.8v11.8h-13.9V63.2h29.3c4,0,6.4,0.3,8.4,1.2c2.6,1.2,4.6,4.4,4.8,8.1 c0.5,8.7-11.5,8.6-11.5,8.6L553.2,96.5L553.2,96.5z M523.5,75.5h9.9c2.7,0,3.9-0.5,3.9-2.6c0-2.5-1.7-2.6-4.1-2.6h-9.7V75.5 L523.5,75.5z"></path> <polygon fill="#76B82A" points="26.2,104.5 243.2,104.5 243.2,119.1 26.2,119.1 26.2,104.5 "></polygon> <path fill="#FFFFFF" d="M300.2,119.6c0.3-0.5,19.1-31.2,22.8-37.3c0.5-0.9,0.4-2,0.1-2.9C320,68.3,300-5.4,299.9-5.8 c-0.1-0.3-0.3-0.3-0.4,0c-0.1,0.3-19.9,73.4-23.2,85.3c-0.3,1.1-0.2,2.1,0.3,3c4.1,6.9,22.5,36.8,22.7,37.1 C299.6,120,299.9,120,300.2,119.6L300.2,119.6z"></path> <path fill="#646363" d="M261.5,120.8c0,0,7.6-6,8.4-6.7c1.1-1,1.9-2.1,2.2-3.2c0.6-2,13-45.8,13-45.7l5.1,12.1 c0,0-6.1,38.5-6.3,39.9c-0.4,1.8-1.5,3.5-2.6,4.7c-0.8,0.8-23.7,19.7-23.7,19.7L261.5,120.8L261.5,120.8z"></path> <path fill="#646363" d="M300,74.3c0.1-0.3,9.3-15.3,11.1-18.3c0.3-0.4,0.2-1,0.1-1.4c-1.5-5.4-11.3-41.5-11.4-41.7 c0-0.1-0.1-0.1-0.2,0c0,0.1-9.8,36-11.4,41.8c-0.1,0.5-0.1,1,0.2,1.5c2,3.3,11,18,11.1,18.2C299.7,74.5,299.8,74.5,300,74.3 L300,74.3z"></path> <path fill="#9D9D9C" d="M299.7,74.5c0-0.4,0-61.4,0-61.6c0,0-0.1-0.1-0.1,0.1c0,0.1-9.8,36-11.4,41.8c-0.1,0.5-0.1,1,0.2,1.5 c2,3.3,11,18,11.1,18.2C299.7,74.5,299.7,74.5,299.7,74.5L299.7,74.5z"></path> <path fill="#646363" d="M338,120.8c0,0-7.7-6-8.5-6.7c-1-1-1.9-2.1-2.2-3.2c-0.6-2-13-45.8-13-45.7l-5.1,12.1c0,0,6,38.5,6.3,39.9 c0.3,1.8,1.5,3.5,2.6,4.7c0.8,0.8,23.7,19.7,23.7,19.7L338,120.8L338,120.8z"></path> <path fill="#9D9D9C" d="M261.5,120.8c0,0,7.6-6,8.4-6.7c1.1-1,1.9-2.1,2.2-3.2c0.6-2,13-45.8,13-45.7l2.9,11.9 c0,0-6.4,37.5-6.7,38.8c-0.4,1.8-0.8,2.9-3.5,5.2c-0.8,0.8-17.5,14.9-17.5,14.9L261.5,120.8L261.5,120.8z"></path> <path fill="#9D9D9C" d="M299.7,74.5c0-0.4,0-61.4,0-61.6c0,0-0.1-0.1-0.1,0.1c0,0.1-9.8,36-11.4,41.8c-0.1,0.5-0.1,1,0.2,1.5 c2,3.3,11,18,11.1,18.2C299.7,74.5,299.7,74.5,299.7,74.5L299.7,74.5z"></path> <path fill="#9D9D9C" d="M338,120.8c0,0-7.6-6-8.4-6.7c-1-1-1.9-2.1-2.2-3.2c-0.6-2-13-45.8-13-45.7l-2.9,11.9 c0,0,6.4,37.5,6.7,38.8c0.4,1.8,0.9,2.9,3.5,5.2c0.8,0.8,17.5,14.9,17.5,14.9L338,120.8L338,120.8z"></path> <polygon fill="#1B4379" points="26.2,123.9 243.2,123.9 243.2,138.8 26.2,138.8 26.2,123.9 "></polygon> <polygon fill="#76B82A" points="356.8,104.5 573.8,104.5 573.8,119.1 356.8,119.1 356.8,104.5 "></polygon> <polygon fill="#1B4379" points="356.8,123.9 573.8,123.9 573.8,138.8 356.8,138.8 356.8,123.9 "></polygon> </g> </svg> 